# xmcd CD database file
#
# Track frame offsets:
#	150
#	25425
#	45562
#
# Disc length: 943 seconds
#
# Revision: 0
# Processed by: cddbd v1.5PL3 Copyright (c) Steve Scherf et al.
# Submitted via: CDex 1.50beta9
#
DISCID=1e03ad03
DTITLE=小野正利 - キレイだね
DYEAR=1995
DGENRE=J-POP
TTITLE0=キレイだね
TTITLE1=Ｗｉｌｄ　ｉｎ　Ｍｙ　Ｈｅａｒｔ
TTITLE2=キレイだね　カラオケ
EXTD=YEAR: 1995
EXTT0=
EXTT1=
EXTT2=
PLAYORDER=
